<?xml version="1.0" encoding="utf-8"?>
<!-- Generator: Adobe Illustrator 19.0.0, SVG Export Plug-In . SVG Version: 6.00 Build 0)  -->
<svg  width="800px" height="800px" version="1.1" id="Ñëîé_1" xmlns="http://www.w3.org/2000/svg" xmlns:xlink="http://www.w3.org/1999/xlink"
	 viewBox="0 0 500 500" style="enable-background:new 0 0 500 500;" xml:space="preserve">
<g id="XMLID_1_">
	<path id="XMLID_18_" d="M82,260.3c0,2.6,3.8,1.3,3.8,2.3c0,0.5-0.4,0.5-1,0.5c-1.8,0-2.8-0.1-5.1-0.1c-2.3,0-3.3,0.1-5.1,0.1
		c-0.6,0-1-0.1-1-0.5c0-1,3.8,0.3,3.8-2.3l0-22.2c-3.9,0-7.2,3.4-8.7,6.5c-0.4,0.9-0.6,1.4-0.8,1.4c-0.3,0-0.3-0.2-0.3-0.3
		c0-0.5,0.2-1.4,0.4-2.1l1.2-6.3c0-0.2,0.1-0.7,0.4-0.7c0.2,0,0.3,0.2,0.5,0.3c0.2,0.2,0.6,0.3,1.4,0.3h16.5c0.8,0,1.1-0.2,1.4-0.3
		c0.2-0.2,0.3-0.3,0.5-0.3c0.3,0,0.4,0.5,0.4,0.7l1.2,6.3c0.2,0.7,0.4,1.6,0.4,2.1c0,0.2-0.1,0.3-0.3,0.3c-0.2,0-0.4-0.5-0.8-1.4
		c-1.5-3.1-4.8-6.5-8.7-6.5V260.3z"/>
	<path id="XMLID_17_" d="M99.2,249.8v10.4c0,2.6,3.2,1.3,3.2,2.3c0,0.5-0.2,0.5-0.8,0.5c-1.3,0-2.3-0.1-4.6-0.1
		c-2.3,0-3.3,0.1-4.6,0.1c-0.6,0-0.8-0.1-0.8-0.5c0-1,3.2,0.3,3.2-2.3v-20.4c0-2.6-3.2-1.3-3.2-2.3c0-0.5,0.2-0.5,0.8-0.5
		c1.3,0,2.3,0.1,4.6,0.1c2.3,0,3.3-0.1,4.6-0.1c0.6,0,0.8,0.1,0.8,0.5c0,1-3.2-0.3-3.2,2.3v9h11v-9c0-2.6-3.2-1.3-3.2-2.3
		c0-0.5,0.2-0.5,0.8-0.5c1.3,0,2.3,0.1,4.6,0.1c2.3,0,3.3-0.1,4.6-0.1c0.6,0,0.8,0.1,0.8,0.5c0,1-3.2-0.3-3.2,2.3v20.4
		c0,2.6,3.2,1.3,3.2,2.3c0,0.5-0.2,0.5-0.8,0.5c-1.3,0-2.3-0.1-4.6-0.1c-2.3,0-3.3,0.1-4.6,0.1c-0.6,0-0.8-0.1-0.8-0.5
		c0-1,3.2,0.3,3.2-2.3v-10.4L99.2,249.8L99.2,249.8z"/>
	<path id="XMLID_16_" d="M121.9,239.9c0-2.6-3.2-1.3-3.2-2.3c0-0.5,0.2-0.5,0.8-0.5c1.3,0,2.3,0.1,4.6,0.1c8.4,0,11.2-0.1,14-0.1
		l1.8,7.1c0.1,0.5,0.2,0.8,0.2,1c0,0.3-0.1,0.4-0.3,0.4c-0.5,0-0.3-1-2.2-3.6c-2.3-3.3-5.6-4-10.1-4h-1.1v11.2h0.8
		c3.3,0,5.8-1.3,5.8-5.1c0-0.6,0.2-0.7,0.5-0.7c0.3,0,0.5,0.2,0.5,0.7v11.4c0,0.6-0.2,0.7-0.5,0.7c-0.3,0-0.5-0.1-0.5-0.7
		c0-4-2.5-5.3-5.8-5.3h-0.8v9.9c0,1.4,0.9,2.1,3.2,2.1c7.1,0,10.1-4.7,11.2-8.4c0.2-0.6,0.3-0.8,0.6-0.8s0.3,0.2,0.3,0.4
		c0,0.2,0,0.6-0.1,1.1l-1.6,8.6c-3.2,0-6.4-0.1-15.9-0.1c-2.3,0-3.3,0.1-4.6,0.1c-0.6,0-0.8-0.1-0.8-0.5c0-1,3.2,0.3,3.2-2.3
		L121.9,239.9L121.9,239.9z"/>
	<path id="XMLID_15_" d="M164.8,260.3c0,2.6,3.8,1.3,3.8,2.3c0,0.5-0.4,0.5-1,0.5c-1.8,0-2.8-0.1-5.1-0.1s-3.3,0.1-5.1,0.1
		c-0.6,0-1-0.1-1-0.5c0-1,3.8,0.3,3.8-2.3l0-22.2c-3.9,0-7.2,3.4-8.7,6.5c-0.4,0.9-0.6,1.4-0.8,1.4c-0.3,0-0.3-0.2-0.3-0.3
		c0-0.5,0.2-1.4,0.4-2.1l1.2-6.3c0-0.2,0.1-0.7,0.4-0.7c0.2,0,0.3,0.2,0.5,0.3c0.2,0.2,0.6,0.3,1.4,0.3h16.5c0.8,0,1.1-0.2,1.4-0.3
		c0.2-0.2,0.3-0.3,0.5-0.3c0.3,0,0.4,0.5,0.4,0.7l1.2,6.3c0.2,0.7,0.4,1.6,0.4,2.1c0,0.2-0.1,0.3-0.3,0.3c-0.2,0-0.4-0.5-0.8-1.4
		c-1.5-3.1-4.8-6.5-8.7-6.5L164.8,260.3L164.8,260.3z"/>
	<path id="XMLID_14_" d="M177.8,239.9c0-2.6-3.2-1.3-3.2-2.3c0-0.5,0.2-0.5,0.8-0.5c1.3,0,2.3,0.1,4.6,0.1c2.3,0,3.3-0.1,4.6-0.1
		c0.6,0,0.8,0.1,0.8,0.5c0,1-3.2-0.3-3.2,2.3v20.4c0,2.6,3.2,1.3,3.2,2.3c0,0.5-0.2,0.5-0.8,0.5c-1.3,0-2.3-0.1-4.6-0.1
		c-2.3,0-3.3,0.1-4.6,0.1c-0.6,0-0.8-0.1-0.8-0.5c0-1,3.2,0.3,3.2-2.3V239.9z"/>
	<path id="XMLID_13_" d="M202,256.6l8.2-19.5h1.8c2.3,0,3.3-0.1,4.6-0.1c0.6,0,0.8,0.1,0.8,0.5c0,1-3.2-0.3-3.2,2.3v20.4
		c0,2.6,3.2,1.3,3.2,2.3c0,0.5-0.2,0.5-0.8,0.5c-1.3,0-2.3-0.1-4.6-0.1c-2.3,0-3.3,0.1-4.6,0.1c-0.6,0-0.8-0.1-0.8-0.5
		c0-1,3.2,0.3,3.2-2.3v-19.8h-0.1l-8.9,21.8c-0.2,0.3-0.3,0.8-0.6,0.8c-0.2,0-0.3-0.4-0.5-0.8l-8.7-21.5h-0.1v16
		c0,3.2,1.1,4.8,2.6,5.3c1,0.3,1.4,0.2,1.4,0.7c0,0.3-0.2,0.4-0.8,0.4c-1.1,0-2.1-0.1-3.6-0.1c-2.4,0-3.4,0.1-4,0.1
		c-0.5,0-0.9,0-0.9-0.4c0-0.6,0.4-0.4,1.4-0.7c2.7-0.8,3-3.7,3-8.3v-12.9c0-3.4-3.9-2.2-3.9-3.1c0-0.5,0.2-0.5,0.8-0.5
		c1.3,0,2.3,0.1,4.6,0.1h2.4L202,256.6z"/>
	<path id="XMLID_12_" d="M221.3,239.9c0-2.6-3.2-1.3-3.2-2.3c0-0.5,0.2-0.5,0.8-0.5c1.3,0,2.3,0.1,4.6,0.1c8.4,0,11.2-0.1,14-0.1
		l1.8,7.1c0.1,0.5,0.2,0.8,0.2,1c0,0.3-0.1,0.4-0.3,0.4c-0.5,0-0.3-1-2.2-3.6c-2.3-3.3-5.6-4-10.1-4h-1.1v11.2h0.8
		c3.3,0,5.8-1.3,5.8-5.1c0-0.6,0.2-0.7,0.5-0.7c0.3,0,0.5,0.2,0.5,0.7v11.4c0,0.6-0.2,0.7-0.5,0.7c-0.3,0-0.5-0.1-0.5-0.7
		c0-4-2.5-5.3-5.8-5.3h-0.8v9.9c0,1.4,0.9,2.1,3.2,2.1c7.1,0,10.1-4.7,11.2-8.4c0.2-0.6,0.3-0.8,0.6-0.8c0.3,0,0.3,0.2,0.3,0.4
		c0,0.2,0,0.6-0.1,1.1l-1.6,8.6c-3.2,0-6.4-0.1-15.9-0.1c-2.3,0-3.3,0.1-4.6,0.1c-0.6,0-0.8-0.1-0.8-0.5c0-1,3.2,0.3,3.2-2.3
		L221.3,239.9L221.3,239.9z"/>
	<path id="XMLID_11_" d="M242.6,252.5c0-0.3,0.2-0.5,0.4-0.5c0.4,0,0.4,0.3,0.6,1.1c0.7,4.7,2.9,9.5,8.2,9.5c4.1,0,5.9-2.3,5.9-4.9
		c0-7.7-15.1-4.6-15.1-14c0-4,3.9-7.3,8.6-7.3c3.6,0,5,1.5,6.6,1.5c1.2,0,0.7-1.2,1.4-1.2c0.3,0,0.4,0.2,0.4,0.6
		c0.5,5.3,0.7,8,0.7,8.5c0,0.4-0.2,0.5-0.4,0.5c-0.3,0-0.4-0.5-0.5-0.9c-1.4-4.3-3.6-8-8.2-8c-3.1,0-4.9,1.7-4.9,4.1
		c0,7,15.1,4.7,15.1,13.9c0,4-3.1,8.1-9.7,8.1c-3,0-5.7-1.4-6.8-1.4c-1.7,0-1.1,1.3-1.8,1.3c-0.2,0-0.4-0.1-0.4-0.5L242.6,252.5
		L242.6,252.5z"/>
	<path id="XMLID_56_" d="M299.9,250.1c0,8.5-7.2,13.5-13.7,13.5c-6.4,0-13.7-5-13.7-13.5c0-8.5,7.2-13.5,13.7-13.5
		C292.7,236.5,299.9,241.5,299.9,250.1z M286.2,237.5c-5,0-8.7,4-8.7,12.6c0,8.6,3.7,12.6,8.7,12.6c5,0,8.7-4,8.7-12.6
		C294.9,241.5,291.2,237.5,286.2,237.5z"/>
	<path id="XMLID_8_" d="M304.1,239.9c0-2.6-3.2-1.3-3.2-2.3c0-0.5,0.2-0.5,0.8-0.5c1.3,0,2.3,0.1,4.6,0.1c8.4,0,11.2-0.1,13.7-0.1
		l1.8,7.1c0.1,0.5,0.2,0.8,0.2,1c0,0.3-0.1,0.4-0.3,0.4c-0.5,0-0.3-1-2.2-3.6c-2.3-3.3-5.6-4-10.1-4h-0.8v11.2h0.8
		c3.3,0,5.8-1.3,5.8-5.1c0-0.6,0.2-0.7,0.5-0.7c0.3,0,0.5,0.2,0.5,0.7v11.4c0,0.6-0.2,0.7-0.5,0.7c-0.3,0-0.5-0.1-0.5-0.7
		c0-4-2.5-5.3-5.8-5.3h-0.8v10.1c0,2.6,3.2,1.3,3.2,2.3c0,0.5-0.2,0.5-0.8,0.5c-1.3,0-2.3-0.1-4.6-0.1c-2.3,0-3.3,0.1-4.6,0.1
		c-0.6,0-0.8-0.1-0.8-0.5c0-1,3.2,0.3,3.2-2.3L304.1,239.9L304.1,239.9z"/>
	<path id="XMLID_7_" d="M334.8,239.9c0-2.6-3.2-1.3-3.2-2.3c0-0.5,0.2-0.5,0.8-0.5c1.3,0,2.3,0.1,4.6,0.1c2.3,0,3.3-0.1,4.6-0.1
		c0.6,0,0.8,0.1,0.8,0.5c0,1-3.2-0.3-3.2,2.3v20.4c0,2.6,3.2,1.3,3.2,2.3c0,0.5-0.2,0.5-0.8,0.5c-1.3,0-2.3-0.1-4.6-0.1
		c-2.3,0-3.3,0.1-4.6,0.1c-0.6,0-0.8-0.1-0.8-0.5c0-1,3.2,0.3,3.2-2.3V239.9z"/>
	<path id="XMLID_6_" d="M364.7,243.4c0-3.2-1.4-4.8-2.9-5.3c-1-0.3-1.4-0.2-1.4-0.7c0-0.3,0.2-0.4,0.8-0.4c1.4,0,2.4,0.1,4,0.1
		c1.6,0,2.6-0.1,4-0.1c0.6,0,0.8,0.1,0.8,0.4c0,0.5-0.5,0.4-1.4,0.7c-1.4,0.5-2.9,2-2.9,5.3v19.6c0,0.3-0.2,0.5-0.5,0.5
		c-0.3,0-0.6-0.1-0.8-0.4l-16.2-21.5h-0.1v15c0,3.2,1.4,4.8,2.9,5.3c1,0.3,1.4,0.2,1.4,0.7c0,0.3-0.2,0.4-0.8,0.4
		c-1.4,0-2.4-0.1-4-0.1c-1.6,0-2.6,0.1-4,0.1c-0.6,0-0.8-0.1-0.8-0.4c0-0.5,0.5-0.4,1.4-0.7c1.4-0.5,2.9-2,2.9-5.3v-16.3
		c-2.2-3.2-4.3-2.1-4.3-2.8c0-0.4,0.3-0.5,0.8-0.5c0.9,0,1.7,0.1,2.9,0.1h3.5l14.4,19.3h0.1L364.7,243.4L364.7,243.4z"/>
	<path id="XMLID_46_" d="M372.1,239.9c0-2.6-3.2-1.3-3.2-2.3c0-0.5,0.2-0.5,0.8-0.5c1.3,0,2.3,0.1,4.6,0.1c1.6,0,3.3-0.1,5.4-0.1
		c9,0,14.6,5.3,14.6,13.1c0,7.1-4.4,12.9-13,12.9c-2.6,0-4.8-0.1-7-0.1c-2.3,0-3.3,0.1-4.6,0.1c-0.6,0-0.8-0.1-0.8-0.5
		c0-1,3.2,0.3,3.2-2.3V239.9z M376.7,258.7c0,2.4,1.4,3.4,4.2,3.4c4.3,0,8.5-2,8.5-11.7c0-7.3-2.9-12.5-8.7-12.5h-3.9V258.7z"/>
	<path id="XMLID_3_" d="M399.4,239.9c0-2.6-3.2-1.3-3.2-2.3c0-0.5,0.2-0.5,0.8-0.5c1.3,0,2.3,0.1,4.6,0.1s3.3-0.1,4.6-0.1
		c0.6,0,0.8,0.1,0.8,0.5c0,1-3.2-0.3-3.2,2.3v20.4c0,2.6,3.2,1.3,3.2,2.3c0,0.5-0.2,0.5-0.8,0.5c-1.3,0-2.3-0.1-4.6-0.1
		s-3.3,0.1-4.6,0.1c-0.6,0-0.8-0.1-0.8-0.5c0-1,3.2,0.3,3.2-2.3V239.9z"/>
	<path id="XMLID_42_" d="M413.5,253.7c-1,2.9-1.5,4-1.5,5.1c0,3.8,3.2,2.9,3.2,3.8c0,0.4-0.2,0.4-0.6,0.4c-0.8,0-1.7-0.1-4.3-0.1
		c-1.3,0-2.5,0.1-3.9,0.1c-0.4,0-0.5-0.2-0.5-0.5c0-0.7,1.5-0.3,2.6-1.2c1-0.8,2.2-2.9,3.3-5.5c4.6-11.4,5.2-12.8,5.2-13.2
		c0-0.3-0.9-1-0.9-1.4c0-0.6,0.6-0.5,1.7-2.7c0.8-1.7,0.6-2.2,1.1-2.2c0.5,0,0.5,1.3,2.7,6.3l8.1,18c1,2.2,2.8,1.1,2.8,2
		c0,0.4-0.3,0.5-0.6,0.5c-1.5,0-3-0.1-4.6-0.1c-1.5,0-3,0.1-4.6,0.1c-0.4,0-0.6-0.1-0.6-0.5c0-1,2.7,0.2,2.7-1.9
		c0-0.3-0.4-1.5-0.6-2.1l-2.2-5L413.5,253.7L413.5,253.7z M417.4,243.4l-3.6,9.4h7.7L417.4,243.4z"/>
</g>
</svg>
